<?xml version="1.0" standalone="no"?>
<!DOCTYPE svg PUBLIC "-//W3C//DTD SVG 20010904//EN"
 "http://www.w3.org/TR/2001/REC-SVG-20010904/DTD/svg10.dtd">
<svg version="1.0" xmlns="http://www.w3.org/2000/svg"
 width="700.000000pt" height="700.000000pt" viewBox="0 0 700.000000 700.000000"
 preserveAspectRatio="xMidYMid meet">
<metadata>
Created by potrace 1.11, written by Peter Selinger 2001-2013
</metadata>
<g transform="translate(0.000000,700.000000) scale(0.100000,-0.100000)"
fill="#000000" stroke="none">
<path d="M3340 6329 c-154 -12 -356 -46 -495 -84 -417 -114 -746 -306 -1050
-610 -395 -394 -606 -853 -655 -1420 -61 -715 160 -1337 654 -1843 117 -120
226 -210 369 -306 224 -150 444 -245 727 -315 l155 -39 180 -119 c381 -254
632 -395 910 -513 357 -152 773 -261 1050 -276 l100 -5 325 320 325 319 -95
-28 c-278 -82 -470 -78 -830 16 -156 40 -476 147 -700 233 -137 52 -152 60
-125 66 461 105 826 299 1139 604 369 361 589 771 677 1266 21 116 24 160 24
415 0 308 -11 406 -71 638 -181 697 -760 1303 -1479 1549 -340 116 -740 162
-1135 132z m485 -629 c225 -26 404 -78 600 -174 176 -87 285 -166 446 -326
199 -198 312 -376 394 -622 144 -434 115 -959 -76 -1340 -187 -373 -527 -687
-908 -838 -478 -189 -1099 -167 -1535 54 -490 249 -818 685 -907 1206 -20 119
-29 315 -19 452 29 405 159 728 409 1014 274 315 642 511 1068 569 119 16 405
19 528 5z"/>
</g>
</svg>
